<?xml version="1.0" standalone="no"?>
<!DOCTYPE svg PUBLIC "-//W3C//DTD SVG 20010904//EN"
 "http://www.w3.org/TR/2001/REC-SVG-20010904/DTD/svg10.dtd">
<svg version="1.0" xmlns="http://www.w3.org/2000/svg"
 width="512.000000pt" height="512.000000pt" viewBox="0 0 512.000000 512.000000"
 preserveAspectRatio="xMidYMid meet">
<metadata>
Created by potrace 1.16, written by Peter Selinger 2001-2019
</metadata>
<g transform="translate(0.000000,512.000000) scale(0.100000,-0.100000)"
fill="#000000" stroke="none">
<path d="M44 5108 c-12 -5 -27 -21 -33 -34 -8 -18 -11 -412 -11 -1405 l0
-1381 28 -26 c26 -27 78 -36 1672 -316 l1645 -289 183 -181 c100 -99 182 -183
182 -187 0 -3 -87 -50 -192 -105 -215 -110 -231 -125 -205 -186 8 -18 100
-117 204 -220 198 -195 212 -205 263 -178 11 6 65 98 121 206 l102 196 151
-152 c83 -84 147 -154 141 -157 -5 -2 -91 -45 -190 -96 -193 -99 -223 -124
-211 -174 10 -39 380 -409 419 -419 50 -12 75 18 174 211 51 99 94 185 96 190
3 6 97 -81 209 -193 181 -179 208 -202 237 -202 43 0 81 38 81 81 0 29 -23 56
-202 236 -111 111 -200 204 -197 207 2 2 86 45 185 94 111 56 190 101 203 118
42 53 36 63 -176 275 -131 130 -208 200 -226 205 -50 12 -75 -19 -174 -211
-51 -99 -94 -184 -96 -190 -3 -5 -73 58 -157 141 l-152 151 196 102 c108 56
200 110 206 121 27 51 17 65 -177 263 -104 104 -203 196 -221 204 -61 26 -76
10 -186 -205 -55 -105 -102 -192 -105 -192 -4 0 -88 82 -187 183 l-181 182
-289 1645 c-280 1594 -289 1646 -316 1673 l-26 27 -1384 -1 c-931 0 -1390 -4
-1404 -11z m2556 -155 c0 -12 -1144 -1153 -1155 -1153 -11 0 -1155 1141 -1155
1152 0 5 520 8 1155 8 635 0 1155 -3 1155 -7z m404 -1505 c136 -777 250 -1426
253 -1443 4 -24 -157 132 -846 820 l-851 850 592 592 c326 326 595 593 598
593 3 0 117 -636 254 -1412z m132 -1585 c-4 -4 -2841 494 -2866 503 -9 3 161
180 498 517 281 282 515 523 521 537 21 58 -38 120 -99 105 -15 -4 -216 -197
-522 -503 l-498 -497 0 1155 0 1155 1485 -1485 c816 -816 1483 -1486 1481
-1487z m1082 -366 l93 -94 -149 -76 c-83 -43 -157 -77 -165 -77 -8 0 -21 7
-28 16 -12 15 -3 37 66 170 44 85 82 154 85 154 3 0 47 -42 98 -93z m-357
-353 c17 -15 14 -24 -62 -177 l-81 -160 -94 94 c-52 51 -94 97 -94 101 0 8
287 157 304 157 5 1 17 -6 27 -15z m938 -238 l94 -94 -153 -77 c-151 -76 -153
-76 -172 -57 -19 19 -19 21 56 171 42 83 77 151 79 151 1 0 45 -42 96 -94z
m-348 -352 c11 -13 1 -39 -66 -175 l-80 -159 -92 92 c-51 51 -93 96 -93 100 0
9 288 157 306 157 6 1 17 -6 25 -15z"/>
</g>
</svg>
